<svg viewBox="0 0 1263.1 299.09"><path d="M14.56 131.25C-5.4 325.18 61.83 213.03 133.5 91.71 218.17-51.61 278.82-7.12 291.27 249.85c8.96 184.59-250.54-372.73-276.71-118.6z" fill="none" stroke="#ffed7b" stroke-miterlimit="10" stroke-width="22"/><g fill="#fff"><path d="M502 220.81h-28.5l-55.7-91.59v91.59h-28.4V81.61h28.4l55.7 91.8v-91.8H502v139.2zM722.8 186.41l31.6-104.8h31.8L738 220.81h-29.8l-48-139.2h31.5l31.1 104.8zM843.8 116.02l-31.3 104.79h-31.8l48.2-139.2h29.8l48 139.2h-31.6l-31.3-104.79zM1012.9 104.92h-42.2v115.89H942V104.92h-41.7V81.61h112.6v23.31zM1117.5 160.51h-54.8v37.3h64.4v23h-92.9V81.61h92.7v23.31h-64.2v32.99h54.8v22.6zM619.9 148.02c0-14.7-2.6-25.6-7.9-33.3s-12.7-11.4-22.3-11.4-16.9 3.7-22.1 11.2-7.9 18.4-7.9 32.9v6.8c0 14.2 2.6 25.2 7.9 33.1s12.7 11.8 22.3 11.8 16.9-3.7 22.1-11.4c5-7.4 7.7-18.6 7.9-33.1zm28.9 6.4c0 13.8-2.4 25.6-7.2 36.2a54.8 54.8 0 01-20.6 23.9c-9 5.7-19.3 8.3-30.9 8.3a57.89 57.89 0 01-30.7-8.3 53.59 53.59 0 01-20.8-23.7c-5-10.3-7.4-22.1-7.4-35.5v-6.8c0-13.8 2.4-25.9 7.4-36.2a54.65 54.65 0 0120.8-24.1 60.93 60.93 0 0161.4 0c9 5.5 16 13.6 20.8 24.1s7.4 22.3 7.4 36.2v5.9zM1262.7 174.52c-1.1 14.9-6.6 26.7-16.4 35.3s-23 12.9-39.2 12.9c-17.7 0-31.8-5.9-41.9-18s-15.3-28.5-15.3-49.5v-8.5c0-13.4 2.4-25.2 7-35.3a51.09 51.09 0 0120.2-23.4c8.8-5.5 18.8-8.1 30.5-8.1 16 0 28.9 4.4 38.6 12.9 9.9 8.5 15.3 20.6 16.9 36.2h-28.6c-.7-9-3.3-15.6-7.4-19.5-4.4-3.9-10.7-6.1-19.5-6.1-9.4 0-16.7 3.5-21.3 10.3-4.8 6.8-7.2 17.5-7.2 32v10.4c0 15.1 2.2 26.1 6.8 33.1s11.6 10.5 21.5 10.5c8.8 0 15.3-2 19.7-6.1 4.4-3.9 6.8-10.3 7.4-18.8h28.3v-.3z"/></g></svg>